<svg width="271" height="211" viewBox="0 0 271 211" fill="none" xmlns="http://www.w3.org/2000/svg">
<path d="M89.5757 99.788C89.8987 96.8739 90.7098 94.035 91.975 91.3902C92.8388 89.5787 95.4421 84.1921 97.7575 84.492C99.653 84.7799 100.517 88.8349 101.573 93.7896C102.393 97.6276 102.882 101.529 103.036 105.45C101.547 106.071 99.9281 106.318 98.3214 106.17C92.7788 105.63 89.8756 100.364 89.5757 99.788Z" fill="#F2F2F2"/>
<path d="M223.94 175.368C219.777 177.515 218.134 177.408 216.454 179.111C214.954 180.647 213.491 183.562 214.343 189.764H238.336C240.831 183.952 242.806 177.93 244.239 171.769C246.667 162.528 247.442 152.931 246.53 143.421C246.242 140.721 245.846 138.49 245.534 136.966C244.96 136.637 244.367 136.341 243.759 136.078C241.285 135.037 238.62 134.526 235.937 134.579C235.289 139.785 234.941 144.26 234.737 147.775C233.945 161.476 235.061 166.55 231.138 170.569C228.982 172.507 226.558 174.123 223.94 175.368V175.368Z" fill="#F2F2F2"/>
<path d="M23.5932 186.165C18.4705 186.741 15.1954 186.285 12.7961 188.565C9.9888 191.18 9.94081 195.763 10.3967 199.362C13.8088 199.535 17.2295 199.403 20.618 198.966C23.7524 198.562 26.8468 197.891 29.8675 196.962L63.6746 186.417C72.4562 183.682 81.9577 180.419 86.8044 172.585C88.496 169.861 89.4917 166.478 88.496 163.431C88.1692 162.44 87.6132 161.54 86.8732 160.804C86.1332 160.068 85.23 159.518 84.2371 159.196C81.7538 158.549 81.3099 159.712 79.7023 161.296C75.9848 164.778 71.8976 167.844 67.5135 170.437C60.3154 174.888 53.1174 177.383 39.333 181.738C30.7193 184.486 26.4004 185.853 23.5932 186.165Z" fill="#F2F2F2"/>
<path d="M60.1355 121.382C57.5321 126.769 60.4234 128.172 58.5279 137.362C56.8603 145.484 54.185 146.312 54.9288 149.707C56.4404 156.905 70.1888 161.704 81.5378 160.828C98.4773 159.448 108.411 145.364 110.57 142.293L110.654 142.173L110.93 141.789C119.256 129.792 118.392 122.594 118.392 122.594C117.936 118.827 115.297 115.684 109.994 109.397C107.055 105.918 105.435 104.023 102.484 102.475C98.2134 100.208 96.3419 101.636 92.4309 99.1162C89.9116 97.4966 88.304 95.5172 85.1728 91.7022C79.4863 84.732 78.4186 81.5169 76.7031 81.8288C74.4117 82.2487 73.308 88.3071 73.104 91.7022C72.6121 98.9003 75.4314 102.259 73.104 106.53C72.4442 107.73 72.0723 107.73 69.505 110.237C66.0379 113.5 62.1149 117.303 60.1355 121.382Z" fill="white"/>
<path d="M150.843 120.903C162.276 116.692 167.327 103.387 172.354 90.1908C181.471 66.1971 174.165 60.8826 181.951 48.2019C193.804 28.899 221.925 23.0086 241.539 25.9478C248.138 26.9316 259.535 28.6111 265.929 37.4048C272.539 46.4744 269.876 57.6434 268.328 68.5965C264.609 94.9895 266.709 124.982 270.632 181.151C270.956 185.709 271.651 194.815 265.929 200.562C258.731 207.76 245.534 205.552 239.536 204.161C239.018 201.305 239.439 198.359 240.736 195.763C243.783 190.184 249.637 191.36 253.932 186.165C257.783 181.499 257.399 175.368 256.991 168.986C256.631 163.407 256.212 156.785 251.533 152.574C247.394 148.855 244.443 151.063 239.536 147.776C231.006 142.065 232.974 130.764 228.739 129.78C224.024 128.689 219.549 142.185 209.544 154.974C205.945 159.604 189.149 179.987 165.156 184.966C148.36 188.457 144.845 180.875 121.967 183.766C108.267 185.494 111.722 187.941 89.5757 193.363C63.9865 199.638 51.1859 198.378 24.7929 207.76C21.9256 208.779 19.5982 209.667 18.0627 210.279L0.799229 210.159C-0.14852 206.332 -0.760358 201.245 1.99891 198.162C4.99812 194.815 10.2527 195.763 15.1954 195.763C20.1381 195.763 22.3215 194.863 50.3581 181.966C75.1075 170.581 75.7913 170.174 77.3629 168.566C85.0649 160.636 87.7642 149.287 92.215 139.174C96.3419 129.828 105.004 118.58 116.557 119.611C132.236 120.967 138.367 125.509 150.843 120.903Z" fill="white"/>
<path d="M209.052 15.87C203.544 15.4202 198.008 16.2655 192.886 18.3383C187.763 20.411 183.197 23.6536 179.552 27.8069C173.709 34.5611 170.65 43.3188 165.24 50.4329C159.829 57.547 150.208 63.0295 142.098 59.2865C135.248 56.1194 132.428 47.2897 134.144 39.9597C135.859 32.6296 141.102 26.5952 146.801 21.6525C159.944 10.2783 176.113 2.97522 193.336 0.634095C204.457 -0.85351 216.466 -0.0137316 225.728 6.2966C234.017 11.9471 240.904 25.1196 235.445 34.6451C232.422 23.596 219.825 16.8658 209.052 15.87Z" fill="#FFD5C7"/>
<path d="M79.6183 103.795C79.6183 103.795 76.9975 91.3434 77.9988 92.4217C79 93.5 79.7334 94.937 80.938 95.8768C82.1457 96.8088 83.1569 97.9709 83.9132 99.2959C84.2809 99.9667 84.4418 100.731 84.3756 101.494C84.3095 102.256 84.0191 102.981 83.5413 103.579C82.4976 104.682 80.2902 105.526 79.7503 104.099" fill="black"/>
<path d="M67.2376 132.839C68.2591 133.259 69.3797 133.378 70.4663 133.18C71.553 132.982 72.5601 132.477 73.368 131.723C74.0063 131.01 74.4231 130.126 74.5676 129.18" stroke="black" stroke-width="1.5" stroke-miterlimit="10" stroke-linecap="round"/>
<path d="M54.7849 147.775C55.2694 147.312 55.914 147.053 56.5844 147.053C57.2549 147.053 57.8995 147.312 58.3839 147.775C59.2837 149.071 57.2922 152.19 55.9846 152.034C54.6769 151.878 53.5852 149.143 54.7849 147.775Z" fill="black"/>
<path d="M56.8244 151.134C57.5322 152.298 58.4423 153.326 59.5117 154.17C60.5946 155.021 61.9513 155.448 63.3267 155.369C64.0064 155.309 64.6567 155.064 65.2066 154.66C65.7566 154.256 66.1852 153.708 66.4459 153.078" stroke="black" stroke-miterlimit="10" stroke-linecap="round"/>
<path d="M121.367 119.583L130.809 120.614C130.228 127.038 128.359 133.278 125.315 138.965C122.272 144.651 118.114 149.666 113.091 153.712C108.068 157.757 102.282 160.751 96.0784 162.513C89.8742 164.276 83.3788 164.771 76.979 163.971L79.3784 161.571C89.551 161.287 99.3071 157.469 106.971 150.774C120.539 138.717 121.283 122.414 121.367 119.583Z" fill="#FFD5C7"/>
</svg>
