<svg width="228" height="282" viewBox="0 0 228 282" fill="none" xmlns="http://www.w3.org/2000/svg">
<path d="M90.3348 14.7972C121.426 6.96219 148.684 16.49 153.677 18.3068C175.399 26.3742 194.572 40.097 209.214 58.0566C195.454 57.6699 182.001 62.1661 171.238 70.7486C159.031 68.3161 146.394 69.2362 134.669 73.4109C127.463 76.0303 120.756 79.8561 114.833 84.7246C108.672 82.8232 90.8524 78.2871 71.4282 86.2036C64.1508 89.1861 57.5091 93.5297 51.8594 99.0012C35.1477 98.298 18.4548 100.782 2.67216 106.322C5.88396 97.0392 30.4064 29.9091 90.3348 14.7972Z" fill="#F9BC35"/>
<path d="M101.515 69.1502C109.317 94.0588 118.204 118.582 128.177 142.72C132.208 152.439 136.127 165.033 145.627 170.848C155.64 176.988 163.171 168.972 166.164 159.672C167.6 155.19 160.642 152.919 159.205 157.418C158.168 160.624 156.191 166.66 151.769 165.69C147.348 164.72 144.093 159.476 142.084 155.832C137.208 147.002 133.757 137.219 130.043 127.864C122.156 108.031 115.026 87.924 108.654 67.5413C107.227 63.0779 100.113 64.6635 101.531 69.1672L101.515 69.1502Z" fill="#F9BC35"/>
<path d="M90.1339 9.27443C119.087 1.97019 144.49 10.9598 149.137 12.7205C169.425 20.3531 187.308 33.2625 200.94 50.116C188.113 49.7353 175.57 53.9389 165.563 61.9725C146.232 58.1108 126.297 58.4613 107.115 63.0001C87.9323 67.5389 69.9536 76.1593 54.4038 88.2741C38.8275 87.5761 23.2624 89.8829 8.55808 95.0685C11.5984 86.3478 34.3336 23.3669 90.1339 9.27443Z" fill="#FFCD5F"/>
<path d="M79.6527 3.22329L83.1676 15.579L89.6608 15.8688L83.7109 3.40437L79.6527 3.22329Z" fill="#FFCD5F"/>
<path d="M52.8693 88.9457C52.3196 74.5453 54.9189 60.1984 60.4858 46.9062C66.0527 33.6139 74.4531 21.6966 85.1009 11.9858C115.144 19.7312 141.739 37.2905 160.663 61.8759" stroke="#F9BC35" stroke-width="3" stroke-miterlimit="10"/>
<path d="M56.2045 249.249C53.9655 249.413 51.7961 250.1 49.8703 251.253C48.0361 252.384 46.7849 254.381 47.4745 256.187C48.7968 259.664 55.3372 259.507 57.7827 262.528C59.8017 265.024 57.9035 268.649 54.7826 270.178C51.6618 271.706 47.8584 271.685 44.2043 271.55C41.6521 271.443 39.0005 271.308 36.6473 272.133C34.2942 272.958 32.3819 275.09 33.0928 277.109C33.9317 279.626 37.735 280.365 40.8701 280.621C61.6465 282.307 82.5193 282.447 103.316 281.041C105.172 280.92 107.127 280.749 108.627 279.846C110.127 278.943 110.93 277.003 109.793 275.822C108.407 274.344 105.286 274.756 103.899 273.285C102.648 271.955 103.743 269.858 105.534 269.062C107.438 268.345 109.502 268.17 111.499 268.557C121.558 270.512 138.478 271.784 165.109 273.796C170.831 274.23 185.512 275.112 187.396 270.953C188.178 269.211 186.479 267.128 188.249 264.555C189.315 263.005 190.979 262.244 193.182 261.263C198.628 258.839 201.209 259.841 202.758 258.014C204.308 256.187 203.42 252.682 201.337 250.742C198.692 248.261 194.277 248.204 192.514 248.204C174.564 248.204 136.523 249.896 120.506 249.625C120.499 249.647 66.925 248.744 56.2045 249.249Z" fill="#60AEFF"/>
<path d="M125.269 250.841C126.45 251.069 127.548 251.606 128.453 252.398C129.357 253.19 130.035 254.208 130.416 255.348C123.827 256.274 117.13 256.086 110.603 254.794L108.805 234.888C108.805 234.824 116.298 233.914 116.994 233.836C119.895 233.538 120.286 233.225 122.035 235.301C125.17 239.047 125.724 246.27 125.269 250.841Z" fill="#F2F2F2"/>
<path d="M161.327 243.96C162.603 244.36 163.694 245.205 164.401 246.341C165.108 247.477 165.384 248.829 165.18 250.152L147.67 250.955L146.348 203.544C146.234 199.442 146.227 194.978 148.715 191.708C150.848 188.942 157.623 185.31 161.163 187.179C165.045 189.276 162.756 199.265 162.635 202.99L161.327 243.96Z" fill="#F2F2F2"/>
<path d="M162.038 243.96C163.314 244.36 164.405 245.205 165.112 246.341C165.819 247.477 166.095 248.829 165.891 250.152L148.381 250.955L148.097 233.296L163.026 232.585L162.038 243.96Z" fill="#F9BC35"/>
<path d="M138.855 138.745C130.701 161.494 119.738 175.989 111.343 184.954C93.8826 203.566 77.7236 208.748 72.797 226.414C69.2923 238.983 73.3515 251.069 77.0056 258.889L116.106 257.467L111.84 255.334C112.423 254.687 116.369 250.151 115.395 243.959C114.95 241.287 113.711 238.81 111.84 236.85C120.88 235.03 129.538 231.663 137.433 226.898V257.467H160.893C160.029 255.401 158.536 253.66 156.627 252.49C155.326 251.711 153.87 251.226 152.362 251.069C152.125 247.751 151.888 244.433 151.651 241.116C150.498 232.809 150.981 224.356 153.073 216.234C155.753 206.139 158.867 202.727 163.267 193.442C164.966 189.888 167.213 184.016 168.002 182.11C170.078 177.134 171.784 172.947 172.978 170.025C168.357 165.248 163.395 160.364 158.049 155.423C151.516 149.345 145.082 143.799 138.855 138.745Z" fill="white"/>
<path d="M151.225 113.152C150.45 113.799 149.803 114.389 149.291 114.929C148.651 115.576 148.182 116.124 147.969 116.351L147.855 116.486C142.033 123.531 134.781 137.01 134.781 137.01C133.288 139.797 131.333 143.536 129.137 148.029C157.267 171.368 167.938 174.795 171.635 171.816C175.076 169.051 171.962 161.153 177.322 157.733C181.673 154.932 193.239 154.022 193.737 153.916L194.306 153.795C198.116 152.882 201.679 151.142 204.742 148.698C207.131 146.778 210.586 144.162 211.673 139.84C212.082 137.649 212.346 135.433 212.462 133.207C212.633 131.252 212.732 129.652 212.789 128.501C211.916 127.409 210.67 126.678 209.292 126.446C205.413 125.396 201.409 124.884 197.391 124.925C196.09 124.925 194.206 124.925 191.931 125.095C190.997 122.774 189.701 120.614 188.092 118.697C182.078 111.538 173.547 110.294 170.249 109.79C167.355 109.335 157.637 107.849 151.225 113.152Z" fill="white"/>
<path d="M177.955 128.714C180.699 128.714 180.706 124.449 177.955 124.449C175.203 124.449 175.203 128.714 177.955 128.714Z" fill="black"/>
<path d="M207.152 126.503C207.437 128.019 208.075 129.446 209.014 130.669C209.725 131.607 211.232 133.477 212.569 132.532C212.809 132.31 213.002 132.044 213.139 131.747C213.276 131.451 213.353 131.13 213.365 130.804C213.62 130.016 213.712 129.184 213.635 128.359C213.443 127.605 212.818 127.257 212.213 126.887C211.328 126.364 210.414 125.889 209.476 125.465C208.474 125.01 207.173 126.297 208.183 127.136C208.667 127.521 209.103 127.963 209.484 128.451C209.732 128.866 210.008 129.265 210.308 129.645L210.941 129.155L210.706 129.197C209.363 129.475 209.931 131.536 211.275 131.259C214.289 130.633 210.728 126.489 209.69 125.629L208.382 127.37C209.317 127.794 210.228 128.269 211.112 128.792C211.687 129.133 211.595 129.091 211.417 129.709L211.275 130.491C211.083 130.889 211.14 130.989 211.446 130.783L212.263 130.889C210.536 130.043 209.547 127.783 209.206 125.998C208.95 124.655 206.896 125.223 207.152 126.567V126.503Z" fill="black"/>
<path d="M171.557 173.579C156.191 173.055 141.148 169.039 127.566 161.835C128.22 160.769 128.869 159.703 129.513 158.636C138.134 161.067 146.914 163.437 155.853 165.745C161.72 167.281 167.533 168.759 173.291 170.181L171.557 173.579Z" fill="#FFB89A"/>
<path d="M139.331 124.349C135.336 131.709 131.336 139.055 127.331 146.387C125.255 150.205 123.066 154.435 123.3 158.537C123.627 164.48 128.653 167.167 133.118 168.98C139.018 171.383 145.111 173.807 151.765 173.103C155.54 172.622 159.125 171.169 162.169 168.886C165.214 166.603 167.613 163.568 169.132 160.079C171.976 153.39 171.151 146.124 170.234 139.463C169.282 132.546 168.279 125.465 165.301 119.849C158.49 107.067 147.002 110.259 139.331 124.349Z" fill="black"/>
<path d="M211.282 131.501C211.268 133.628 210.994 135.746 210.465 137.807C209.936 139.882 208.673 141.695 206.91 142.911C206.022 143.501 204.98 143.815 203.914 143.815C202.848 143.815 201.805 143.501 200.917 142.911" stroke="black" stroke-miterlimit="10" stroke-linecap="round"/>
<path d="M68.4747 230.274C67.3306 230.349 66.1843 230.166 65.1201 229.739C64.0559 229.312 63.1008 228.653 62.3249 227.809C61.5489 226.965 60.9719 225.957 60.6362 224.861C60.3004 223.765 60.2144 222.607 60.3846 221.473C60.6134 219.283 61.1272 217.132 61.913 215.075C59.7377 214.947 57.7187 216.412 56.567 218.26C55.4153 220.108 54.9604 222.298 54.5267 224.431C53.9864 227.097 53.4532 229.94 54.4272 232.485C55.435 234.796 57.3121 236.617 59.6524 237.554C61.9733 238.471 64.4166 239.041 66.9036 239.246C68.6615 239.54 70.4525 239.578 72.2212 239.36C74.0088 239.132 75.6339 238.207 76.7426 236.786C77.9654 235.052 77.9369 231.718 76.1597 230.26C74.098 228.554 71.0411 230.346 68.4747 230.274Z" fill="black"/>
<path d="M136.971 238.066L136.991 258.68L163.334 258.809C162.399 256.249 160.724 254.05 158.54 252.513C157.099 251.533 155.46 250.913 153.751 250.7C153.482 246.509 153.21 242.318 152.936 238.127L136.971 238.066Z" fill="#FFCD5F"/>
<path d="M16.3117 253.972C21.0167 253.32 27.8015 258.348 27.8015 258.348C27.8015 258.348 24.1296 246.183 17.924 241.84C11.7183 237.497 4.82344 240.393 5.73467 247.454C6.64591 254.514 11.6066 254.624 16.3117 253.972Z" fill="#60AEFF"/>
<path d="M30.2562 235.661C32.8761 237.584 33.8079 243.287 33.8079 243.287C33.8079 243.287 37.8067 235.566 36.8326 230.476C35.8585 225.386 31.094 223.519 28.1744 227.418C25.2548 231.317 27.6364 233.737 30.2562 235.661Z" fill="#60AEFF"/>
<path d="M214.648 231.954C209.9 232.113 204.071 238.224 204.071 238.224C204.071 238.224 205.617 225.611 210.992 220.274C216.367 214.937 223.655 216.617 223.96 223.729C224.265 230.842 219.395 231.796 214.648 231.954Z" fill="#60AEFF"/>
<path d="M188.798 234.736C186.544 237.077 186.597 242.855 186.597 242.855C186.597 242.855 181.342 235.929 181.434 230.747C181.527 225.565 185.904 222.914 189.445 226.259C192.986 229.604 191.052 232.394 188.798 234.736Z" fill="#60AEFF"/>
</svg>
