<svg width="186" height="226" viewBox="0 0 186 226" fill="none" xmlns="http://www.w3.org/2000/svg">
<path d="M38.2621 193.045C36.0231 193.21 33.8538 193.896 31.9279 195.05C30.0938 196.18 28.8426 198.178 29.5321 199.984C30.8544 203.46 37.3948 203.303 39.8403 206.325C41.8593 208.82 39.9612 212.446 36.8403 213.974C33.7194 215.503 29.916 215.481 26.262 215.346C23.7098 215.24 21.0581 215.105 18.705 215.929C16.3519 216.754 14.4395 218.887 15.1504 220.906C15.9893 223.422 19.7927 224.162 22.9278 224.417C43.7041 226.103 64.577 226.244 85.3741 224.837C87.2295 224.716 89.1845 224.545 90.6846 223.643C92.1846 222.74 92.9879 220.799 91.8504 219.619C90.4642 218.14 87.3433 218.552 85.957 217.081C84.7058 215.751 85.8006 213.654 87.5921 212.858C89.4953 212.141 91.56 211.967 93.5566 212.353C103.616 214.308 120.536 215.581 147.166 217.593C152.889 218.026 167.569 218.908 169.453 214.749C170.235 213.007 168.536 210.924 170.306 208.351C171.373 206.801 173.036 206.04 175.24 205.059C180.686 202.635 183.266 203.638 184.816 201.811C186.366 199.984 185.477 196.479 183.394 194.538C180.75 192.057 176.335 192 174.572 192C156.621 192 118.581 193.692 102.564 193.422C102.557 193.443 48.9826 192.54 38.2621 193.045Z" fill="#E1EAF3"/>
<path d="M133.498 190.372C132.775 190.161 117.327 185.852 106.761 194.391C103.819 196.774 101.582 199.916 100.293 203.476L135.269 202.137L133.498 190.372Z" fill="#F2F2F2"/>
<path d="M63.3693 139.094C62.6438 147.002 62.3995 154.948 62.6379 162.887C63.0697 177.304 64.9555 186.451 59.9325 189.923C56.9451 191.985 51.9309 191.756 50.4681 195.334C50.424 195.431 49.9922 196.752 49.111 199.387H68.0399L73.4506 142.618L63.3693 139.094Z" fill="#F2F2F2"/>
<path d="M47.1371 27.1771C53.9402 23.2556 52.4861 22.0836 56.8306 20.1272C64.5238 16.664 76.0327 17.2192 81.84 23.3525C85.1182 26.8246 84.3955 29.7679 87.1274 30.7108C92.9082 32.7024 99.9581 20.841 103.615 22.5506C106.629 23.9694 104.928 33.522 104.444 36.1128C102.099 48.7496 99.3236 63.7042 85.6293 72.0494C84.4308 72.772 68.4012 82.1043 53.1647 74.5785C50.8558 73.4418 41.8849 69.0092 39.1972 60.6639C37.9194 56.6983 38.6067 53.5171 35.6722 48.3266C34.5178 46.2822 33.2841 44.8017 33.0285 42.158C32.8555 39.6808 33.4726 37.2125 34.791 35.1082C37.2849 31.0721 40.7393 30.8606 47.1371 27.1771Z" fill="white"/>
<path d="M50.4681 69.6348C48.93 76.2906 48.0242 83.0769 47.7627 89.9031C47.5159 96.4242 47.2604 103.051 49.111 111.202C50.8734 119.063 52.5478 120.967 58.0202 134.74C59.7967 139.257 61.338 143.864 62.6379 148.54C64.2873 161.697 65.1876 174.937 65.3344 188.196C65.3344 197.528 62.6379 202.198 58.5754 202.198C54.5129 202.198 51.8163 206.86 51.8163 206.86C51.8163 206.86 50.4681 209.195 51.8163 210.385C53.1646 211.575 70.7452 210.385 70.7452 210.385L74.7989 203.379C80.1392 194.162 79.8572 186.398 81.5667 177.709C83.0673 170.113 85.3319 162.687 88.3258 155.546C93.6115 156.613 98.6526 158.654 103.192 161.565C110.489 166.262 114.534 172.14 119.416 179.137C122.455 183.501 125.168 188.084 127.532 192.849V200.78C124.839 200.406 122.108 200.406 119.416 200.78C115.653 201.3 110.145 202.057 108.603 205.723C108.065 207.182 108.065 208.785 108.603 210.244H151.863C153.815 205.771 156.278 201.54 159.203 197.634C161.08 195.132 163.142 192.776 165.372 190.584C168.192 184.107 171.629 173.523 169.426 161.6C166.306 144.636 153.766 135.569 123.478 110.013C114.34 102.302 99.6849 89.8238 81.5667 73.6532L50.4681 69.6348Z" fill="white"/>
<path d="M164.724 149C166.39 150.463 176.021 159.222 175.537 171.983C174.99 186.558 161.684 194.604 156.608 197.67C139.979 207.725 120.231 204.615 114.697 199.028C113.983 198.305 112.053 196.313 112 193.617C112 190.171 115.111 187.616 116.054 186.858C124.126 180.31 134.445 188.514 149.849 184.152C153.471 183.13 161.851 180.751 166.072 173.34C171.897 163.109 165.614 150.692 164.724 149Z" fill="#F2F2F2"/>
<path d="M56.8306 35.8131C61.3601 32.7729 66.4536 35.8131 66.5241 41.5411" stroke="#020202" stroke-width="1.5" stroke-miterlimit="10" stroke-linecap="round"/>
<path d="M37.2761 37.276C37.2764 37.5151 37.228 37.7517 37.134 37.9715C37.04 38.1912 36.9022 38.3896 36.7291 38.5545C36.556 38.7193 36.3511 38.8473 36.127 38.9305C35.9029 39.0137 35.6642 39.0504 35.4255 39.0385C34.9388 38.9969 34.477 38.8049 34.1044 38.4891C33.7317 38.1733 33.4666 37.7493 33.3458 37.276C33.2313 36.8048 33.2153 36.3151 33.2987 35.8375C33.3821 35.3599 33.5631 34.9046 33.8304 34.5001L37.4611 37.0293" fill="#020202"/>
<path d="M34.2887 37.8577C33.85 39.503 33.7333 41.2176 33.945 42.9071C34.1047 43.8106 34.4851 44.6606 35.0524 45.3816C35.6196 46.1026 36.3563 46.6723 37.1968 47.0401C39.0562 47.8332 41.7087 47.4543 42.7309 45.9738" stroke="black" stroke-miterlimit="10" stroke-linecap="round"/>
<path d="M92.4587 35.7251L97.9753 31.7332V40.942C97.339 41.0267 96.6922 40.9796 96.0749 40.8036C95.4577 40.6276 94.8832 40.3265 94.3873 39.919C93.8914 39.5115 93.4846 39.0064 93.1922 38.435C92.8999 37.8636 92.7282 37.2381 92.6879 36.5975" fill="black"/>
<path d="M87.1627 33.9714C87.5423 33.0469 87.5629 32.0139 87.2206 31.075C86.8783 30.136 86.1976 29.3587 85.3121 28.8955C85.9509 28.5618 86.6703 28.4131 87.3891 28.4664C88.1078 28.5196 88.7975 28.7726 89.3802 29.1968C89.9629 29.621 90.4155 30.1995 90.6869 30.8672C90.9584 31.5349 91.038 32.2651 90.9167 32.9756L87.3918 34.2357" fill="black"/>
<path d="M104.417 45.2423C104.418 46.8049 104.111 48.3524 103.514 49.7963C102.916 51.2402 102.04 52.5522 100.935 53.6571C99.8303 54.762 98.5184 55.6383 97.0745 56.2357C95.6306 56.8332 94.0831 57.1401 92.5205 57.1389C82.0955 57.1389 75.874 43.1274 83.7698 35.8748C85.1416 34.6334 86.783 33.7276 88.5646 33.2291C90.3462 32.7305 92.2194 32.6528 94.0362 33.002L95.1377 33.1342C96.1817 33.8059 97.4376 34.0665 98.6627 33.8656L98.742 34.9671L102.126 35.7074L102.24 38.7388L103.272 38.9503C105.184 40.8978 102.39 45.0132 104.611 46.6523C104.449 49.2004 103.444 51.6223 101.754 53.5367C100.065 55.4511 97.7869 56.7493 95.2787 57.2271L94.5825 58.5665L89.5772 56.8569C87.3959 56.2665 85.3452 55.271 83.5319 53.9225C75.451 47.0753 83.0737 33.3809 92.5205 33.3809C95.6703 33.3786 98.6922 34.6264 100.923 36.8503C103.153 39.0743 104.41 42.0925 104.417 45.2423Z" fill="#FFB89A"/>
<path d="M84.1488 75.6449L88.5549 79.1698C82.3257 82.372 75.4771 84.1875 68.4797 84.4918C61.4822 84.796 54.5019 83.5817 48.0182 80.9323C48.3091 79.1698 48.6087 77.4074 48.8995 75.6449C54.4717 78.0204 60.4667 79.2449 66.5241 79.2449C72.5816 79.2449 78.5765 78.0204 84.1488 75.6449Z" fill="#FFB89A"/>
<path d="M32.8403 32.0557C32.8512 31.3955 32.6047 30.7712 32.1472 30.2982C31.3025 29.4236 29.8635 29.3449 28.9027 30.0432L24.8024 25.668L28.967 25.8037C29.2444 25.8125 29.4747 25.5939 29.4836 25.3197C29.4925 25.0455 29.276 24.8116 29.0015 24.8037L23.8366 24.6345L20.9096 21.5113L25.0814 20.5374L29.4685 23.2629C29.5062 23.2868 29.5468 23.3044 29.588 23.3169C29.7995 23.381 30.0354 23.2989 30.1559 23.1013C30.3003 22.8661 30.2295 22.5583 29.9946 22.4129L26.4581 20.2148L32.3021 18.85C32.5642 19.5815 33.1399 20.1645 33.895 20.3933C34.2941 20.5143 34.7235 20.5316 35.1339 20.4428C36.3861 20.1692 37.199 18.983 37.0479 17.7335C37.0389 17.6565 37.0377 17.5809 37.0214 17.5039C36.9653 17.2476 36.856 17.0118 36.7228 16.7927C36.1869 15.9198 35.1177 15.3931 34.0834 15.6167C32.9882 15.8553 32.2326 16.7935 32.1575 17.8585L26.2302 19.2429L28.4305 15.7029C28.5749 15.4677 28.5031 15.1596 28.2692 15.0145C28.0339 14.8701 27.7271 14.9412 27.5808 15.1758L24.8525 19.5652L20.6823 20.5375L21.9242 16.4396L26.4784 14.0037C26.7215 13.8736 26.8135 13.5703 26.6834 13.3271C26.5543 13.0842 26.25 12.992 26.0068 13.122L22.334 15.0873L24.0796 9.327C25.2223 9.43192 26.323 8.72371 26.6684 7.5839C27.0141 6.44314 26.4892 5.24122 25.4783 4.69454C25.476 4.70219 25.4787 4.71034 25.4764 4.718L25.4729 4.72948C25.3301 4.6423 25.1799 4.56545 25.0143 4.51527C24.8478 4.46481 24.6802 4.44538 24.514 4.43888L24.5177 4.42644C24.5201 4.41878 24.5259 4.41324 24.5292 4.40587C23.3858 4.29971 22.2839 5.00858 21.9385 6.14839C21.5933 7.28725 22.1141 8.4858 23.1216 9.03352L21.3756 14.7948L19.4104 11.1219C19.2803 10.8788 18.9769 10.7868 18.7337 10.9169C18.4906 11.047 18.3986 11.3503 18.5287 11.5935L20.9655 16.148L19.7236 20.246L16.7959 17.1216L16.9633 11.9561C16.9718 11.6797 16.7561 11.4502 16.4802 11.4398C16.2041 11.4303 15.9732 11.6477 15.964 11.9228L15.8289 16.0887L11.6673 11.6468C12.1954 10.7181 12.0874 9.51922 11.3092 8.7118C10.5772 7.95498 9.39194 7.79746 8.4626 8.22636C8.22926 8.33433 8.00743 8.46981 7.81727 8.65251C7.76118 8.70657 7.718 8.76976 7.66803 8.82776C6.84996 9.78254 6.86672 11.2202 7.75703 12.1441C8.04909 12.4458 8.41493 12.6695 8.81496 12.7907C9.57005 13.0196 10.3738 12.8535 10.9966 12.3913L15.0998 16.7706L10.9381 16.6358C10.661 16.626 10.431 16.8436 10.4218 17.1188C10.4152 17.3508 10.5659 17.5501 10.7755 17.6136C10.8166 17.6261 10.8592 17.6338 10.9048 17.6351L16.0669 17.8034L18.9942 20.9288L14.8259 21.9017L10.436 19.1753C10.2032 19.0295 9.89269 19.1026 9.74759 19.3366C9.60258 19.5737 9.67395 19.8795 9.90859 20.0259L13.4479 22.2249L7.60865 23.5879C7.19712 22.4737 5.95399 21.7417 4.76843 21.9989C4.12534 22.1384 3.57284 22.5237 3.21632 23.0761C2.9027 23.5662 2.78521 24.1366 2.85372 24.707C2.86338 24.782 2.8646 24.8608 2.88153 24.9359C2.93761 25.1922 3.04346 25.4291 3.17196 25.6498C3.48235 26.1807 3.9739 26.5929 4.57874 26.7762C4.97877 26.8975 5.40697 26.9154 5.81765 26.8257C6.46141 26.6874 7.0142 26.3012 7.36976 25.7485C7.59757 25.3933 7.71688 24.9927 7.74485 24.5832L13.6718 23.1997L11.4749 26.7356C11.3299 26.9727 11.4023 27.2788 11.6359 27.4249C11.6736 27.4488 11.714 27.4673 11.7551 27.4798C11.9666 27.5439 12.2026 27.4618 12.324 27.2645L15.0483 22.8781L19.2194 21.9029L17.9778 25.9999L13.4226 28.4355C13.1795 28.5656 13.0875 28.8689 13.2176 29.1121C13.3476 29.3553 13.651 29.4472 13.8942 29.3172L17.5677 27.3532L15.8214 33.1154C14.6791 33.0095 13.5778 33.7196 13.2326 34.8585C12.8875 35.9973 13.4125 37.1992 14.4228 37.7478C14.4251 37.7402 15.3814 38.0154 15.3814 38.0154C15.3791 38.023 17.4578 37.9529 17.9607 36.2934C18.3055 35.1555 17.7856 33.9541 16.7776 33.4083L18.5238 27.6461L20.4881 31.3186C20.5539 31.443 20.663 31.5242 20.7846 31.561C20.9061 31.5978 21.0447 31.5886 21.1657 31.5239C21.4083 31.3958 21.5008 31.0905 21.3708 30.8473L18.9359 26.2934L20.1774 22.1964L23.1058 25.322L22.9368 30.4828C22.9305 30.714 23.0812 30.9132 23.2898 30.9764C23.3309 30.9889 23.3733 30.9976 23.4198 30.9991C23.6962 31.0077 23.9275 30.7893 23.9364 30.5151L24.0728 26.3549L28.2347 30.7958C28.0297 31.1517 27.9071 31.5492 27.9001 31.9724C27.8882 32.6323 28.1354 33.2579 28.5929 33.7309C28.8849 34.0325 29.2508 34.2562 29.6508 34.3775C30.2556 34.5608 30.8943 34.491 31.4462 34.2215C31.6766 34.1095 31.8939 33.9716 32.0834 33.7877C32.1389 33.7355 32.1837 33.6707 32.2336 33.6127C32.6095 33.1791 32.8284 32.6362 32.8403 32.0557ZM34.2935 16.5957C34.5394 16.5428 34.7934 16.5529 35.0308 16.6248C35.2882 16.7028 35.5101 16.8463 35.6868 17.0357C35.8613 17.2255 35.9857 17.4596 36.0419 17.7191C36.06 17.804 36.0677 17.8889 36.0716 17.9726C36.0991 18.6716 35.6254 19.3138 34.9195 19.4677C34.6745 19.5209 34.4205 19.5108 34.1832 19.4389C33.7688 19.3133 33.4457 19.0106 33.2747 18.6265C33.2352 18.5362 33.1941 18.4443 33.1711 18.3443C33.1165 18.0937 33.1362 17.8458 33.2052 17.6149C33.3541 17.1198 33.7523 16.7128 34.2935 16.5957ZM10.552 11.4896C10.4796 11.5596 10.4006 11.6203 10.314 11.6714C9.74593 12.0186 8.95056 11.9468 8.47388 11.4544C7.97143 10.9333 7.93467 10.1374 8.34486 9.56996C8.39362 9.50219 8.44811 9.43616 8.51035 9.3756C8.70205 9.19128 8.93458 9.0653 9.18598 9.00461C9.43806 8.94516 9.70327 8.94926 9.95975 9.02698C10.1971 9.09891 10.4149 9.2318 10.5891 9.41207C10.9721 9.81026 11.0805 10.3697 10.9283 10.8649C10.8574 11.0921 10.7366 11.3115 10.552 11.4896ZM6.52924 25.2085C6.31817 25.5396 5.99034 25.7662 5.6064 25.8505C5.36047 25.9034 5.10494 25.895 4.8676 25.823C4.61208 25.7456 4.38796 25.6025 4.21158 25.4121C4.03712 25.2224 3.91364 24.9885 3.85709 24.7269C3.8374 24.6436 3.83036 24.5599 3.82581 24.475C3.81314 24.1754 3.89011 23.88 4.0551 23.6218C4.26742 23.2901 4.59496 23.0644 4.97919 22.9792C5.22445 22.925 5.47873 22.9341 5.71703 23.0063C6.13046 23.1316 6.45384 23.4334 6.62546 23.8187C6.66496 23.9091 6.70608 24.0009 6.72812 24.1006C6.78174 24.3478 6.76419 24.5953 6.69533 24.8294C6.65598 24.9627 6.60601 25.0897 6.52924 25.2085ZM17.0065 36.0042C16.8227 36.611 16.2787 37.0062 15.6792 37.0398L14.7221 36.7497C14.2418 36.39 14.0071 35.7577 14.191 35.151C14.3749 34.5442 14.9192 34.1481 15.5203 34.116C15.6861 34.1067 15.8567 34.1198 16.0251 34.1708C16.1945 34.2221 16.3436 34.306 16.477 34.407C16.9554 34.7662 17.1904 35.3975 17.0065 36.0042ZM23.8754 8.27349C23.706 8.22215 23.5566 8.13927 23.4232 8.03822C22.9441 7.67779 22.711 7.04708 22.8949 6.44033C23.0788 5.83358 23.6209 5.43779 24.2213 5.40451C24.3884 5.39454 24.5587 5.40852 24.7281 5.45985C24.8965 5.5109 25.0459 5.59378 25.1786 5.69358C25.658 6.05305 25.8937 6.68559 25.7098 7.29234C25.5259 7.89909 24.9807 8.29497 24.3805 8.32729C24.2138 8.33947 24.0438 8.32453 23.8754 8.27349ZM31.5544 32.875C31.5053 32.9437 31.4502 33.0085 31.3879 33.0691C31.1965 33.2524 30.9559 33.3707 30.7009 33.4261C30.2109 33.5326 29.6709 33.4045 29.3107 33.031C29.0382 32.7509 28.8922 32.3775 28.8995 31.9847C28.9025 31.8436 28.9305 31.7099 28.9715 31.5781C29.0435 31.344 29.1673 31.1286 29.3491 30.9528C29.4227 30.8821 29.506 30.8279 29.5904 30.7772C29.9458 30.5526 30.3851 30.4789 30.7966 30.6036C31.0349 30.6758 31.2523 30.8065 31.4254 30.9906C31.6995 31.2722 31.8438 31.644 31.8379 32.0361C31.834 32.3453 31.7325 32.6322 31.5544 32.875Z" fill="white"/>
</svg>
