<svg width="179" height="258" viewBox="0 0 179 258" fill="none" xmlns="http://www.w3.org/2000/svg">
<path d="M37.7338 220.703L47.6228 231.51L52.6665 220.346L52.2496 232.501L60.7746 222.042L62.9739 236.909C62.9445 237.324 41.9842 237.127 40.1583 235.994C42.2941 230.095 41.1283 226.005 37.7338 220.703Z" fill="#C1FFC8"/>
<path d="M1.39799 234.032L11.069 245.035L16.3348 233.974L15.6751 246.118L24.4074 235.832L26.3091 250.74C26.2715 251.154 5.31926 250.538 3.51641 249.369C5.76971 243.514 4.68584 239.401 1.39799 234.032Z" fill="#C1FFC8"/>
<path d="M75.2982 117.172C71.0317 130.679 66.7596 144.18 62.4819 157.675C59.6786 155.665 56.4546 154.319 53.0541 153.74C49.6536 153.16 46.1658 153.363 42.855 154.331C39.5442 155.299 36.4972 157.009 33.9449 159.329C31.3926 161.65 29.402 164.521 28.1239 167.725C26.6725 171.366 26.2141 175.601 27.8947 179.132C29.5752 182.663 33.836 185.073 37.5282 183.911C41.772 182.544 44.0212 177.265 48.4009 176.399C51.728 175.746 54.8854 177.918 57.576 179.972L70.3584 189.699C66.6578 187.773 61.8708 190.064 59.7913 193.688C57.7118 197.313 57.8646 201.769 58.5945 205.868C60.2155 214.84 64.4155 223.146 70.6809 229.769C67.6411 230.14 64.8186 231.536 62.6796 233.727C60.5407 235.918 59.2134 238.774 58.9171 241.822L86.7735 241.262C86.7735 238.631 86.7735 236.008 86.7735 233.377C88.9562 234.719 91.4376 235.499 93.9957 235.647C96.5537 235.795 99.1086 235.307 101.432 234.225C118.203 226.205 122.345 202.821 123.05 184.199C123.754 165.577 118.144 147.108 108.824 131.007C104.3 123.19 100.557 118.157 94.336 115.865C86.3321 112.928 78.5405 115.755 75.2982 117.172Z" fill="#F2F2F2"/>
<path d="M103.715 29.0028C104.725 29.7451 105.697 30.5383 106.626 31.3793C107.594 32.2281 108.324 33.0005 108.638 33.34L108.807 33.5267C115.08 40.2913 117.736 83.2219 117.736 83.2219C118.404 93.6189 120.401 103.888 123.678 113.777C119.29 132.213 111.345 143.79 105.854 150.274C99.836 157.378 97.5528 157.438 96.5173 157.064C90.7118 154.968 99.2334 130.26 88.8785 122.265C84.8553 119.159 79.2025 119.507 74.4495 120.568C77.157 101.114 72.4888 96.3692 70.1123 94.9093C64.5614 91.5143 47.0089 90.9117 46.3469 90.8098L45.4981 90.674C39.9599 89.6897 34.7079 87.4927 30.1185 84.2404C26.5537 81.6941 21.3932 78.2311 19.4919 72.1455C18.9318 70.3716 18.5583 67.8253 17.7944 62.7327C17.387 59.9487 17.1154 57.6401 16.9456 56.0274C18.2103 53.9564 20.4765 53.2011 21.7751 52.8106C27.2335 50.9858 32.9169 49.9206 38.6655 49.6447C40.5243 49.5344 43.2149 49.424 46.4827 49.4495C47.6317 46.0336 49.3163 42.822 51.4734 39.9349C59.4857 29.198 71.5636 26.7196 76.2403 25.7265C80.3908 24.8523 94.1069 21.9241 103.715 29.0028Z" fill="white"/>
<path d="M98.4016 155.443C96.1099 153.05 90.8306 148.297 83.5652 147.991C69.4587 147.405 56.6254 163.999 59.1717 174.04C59.9101 176.976 62.2697 180.575 65.113 180.83C69.5436 181.22 70.8931 173.115 78.6932 170.645C82.352 169.576 86.2749 169.878 89.7272 171.493C96.8823 174.888 98.4525 182.892 98.6307 183.885C90.508 188.528 87.7241 199.401 89.7017 208.55C91.6794 217.7 97.3406 225.526 102.917 233.08C100.135 233.937 97.5843 235.416 95.4592 237.406C93.3341 239.396 91.6902 241.844 90.6523 244.564C100.218 245.625 109.874 245.6 119.434 244.487L118.84 234.455C119.343 235.042 119.913 235.569 120.537 236.025C124.229 238.724 128.77 238.164 132.165 237.722C135.196 237.307 141.926 236.381 147.443 231.781C155.082 225.432 156.024 215.706 156.78 208.016C156.78 194.478 148.02 181.95 143.199 173.216C141.833 170.738 137.479 157.132 128.77 129.929C126.631 123.233 124.883 117.665 123.678 113.803C117.949 112.64 114.07 113.709 111.795 114.652C100.982 119.277 94.9386 135.794 98.4016 155.443Z" fill="white"/>
<path d="M161.295 210.324C164.079 210.248 166.973 209.297 168.798 207.192C170.452 205.11 171.226 202.462 170.954 199.817C170.677 197.202 170.064 194.635 169.129 192.178C171.726 192.025 174.128 193.773 175.503 195.98C176.878 198.187 177.422 200.801 177.939 203.348C178.593 206.53 179.221 209.925 178.067 212.964C176.861 215.721 174.621 217.894 171.828 219.016C169.057 220.109 166.14 220.79 163.171 221.036C161.072 221.386 158.934 221.432 156.822 221.172C154.687 220.903 152.745 219.798 151.424 218.099C149.956 216.028 149.998 212.047 152.111 210.307C154.598 208.27 158.24 210.409 161.295 210.324Z" fill="#F2F2F2"/>
<path d="M73.066 103.108L72.752 110.382C89.4206 114.597 107.075 112.162 121.98 103.592C121.412 101.046 120.851 98.4997 120.283 95.9534C113.333 100.341 105.55 103.242 97.4234 104.474C89.2971 105.705 81.0038 105.24 73.066 103.108Z" fill="#FFB89A"/>
<path d="M62.3885 49.1778C65.6648 49.1778 65.6732 44.0852 62.3885 44.0852C59.1038 44.0852 59.1038 49.1778 62.3885 49.1778Z" fill="black"/>
<path d="M21.6733 52.6661C21.2658 54.7965 20.0861 57.4956 18.0151 58.5056L18.9996 58.3783C19.3561 58.6245 19.424 58.5056 19.2033 58.0303L19.0251 57.0967C18.8129 56.3582 18.7111 56.4092 19.3986 56.0018C20.4523 55.3752 21.5404 54.8085 22.6578 54.3042L21.1131 52.3012C19.8739 53.3366 15.63 58.2425 19.2288 59.0234C20.833 59.3544 21.512 56.893 19.9078 56.5619L19.6192 56.511L20.3831 57.0967C20.741 56.6426 21.0699 56.1663 21.3677 55.6708C21.8211 55.0902 22.3393 54.5633 22.9124 54.1005C24.1092 53.1075 22.5899 51.5542 21.3762 52.1059C20.331 52.5663 19.311 53.0819 18.3206 53.6507C17.5098 53.9765 16.8397 54.5775 16.4279 55.3482C16.0969 56.197 16.4958 57.3428 16.6571 58.2255C16.8183 59.1082 16.9117 59.9995 17.6586 60.5257C19.2033 61.6206 20.9179 59.5496 21.7751 58.4547C22.954 56.9691 23.7601 55.2229 24.1262 53.3621C24.4317 51.7579 21.9788 51.0789 21.6733 52.6831V52.6661Z" fill="black"/>
<path d="M19.2798 65.3977C20.1573 67.1217 21.6602 68.4454 23.4811 69.0983C24.5382 69.4514 25.6643 69.5475 26.7659 69.3784C26.9187 70.3286 26.9187 71.2971 26.7659 72.2472C26.6806 72.7242 26.4818 73.1737 26.1864 73.5578C25.891 73.9419 25.5075 74.2493 25.0683 74.454C23.8716 74.9293 22.2335 73.8175 21.4526 72.6207C20.4256 71.0505 21.198 69.8198 20.1115 67.0952C19.8851 66.5059 19.6067 65.9378 19.2798 65.3977Z" fill="#A9002A"/>
<path d="M18.5328 59.728C18.1988 61.2712 18.2979 62.8766 18.8192 64.367C19.3404 65.8574 20.2635 67.1746 21.4865 68.1732C22.6277 69.0191 24.0391 69.418 25.4543 69.2945C26.8695 69.1709 28.1904 68.5336 29.1678 67.5027" stroke="black" stroke-miterlimit="10"/>
<path d="M112.457 39.7228L126.793 66.0345C129.271 70.5924 131.885 75.6426 131.605 80.5399C131.215 87.6356 125.206 90.8439 119.884 93.0083C112.839 95.8771 105.557 98.7714 97.6207 97.9311C93.1133 97.3555 88.8323 95.6201 85.1963 92.8946C81.5603 90.1691 78.6938 86.5468 76.8769 82.3818C73.4819 74.3949 74.4664 65.7205 75.5613 57.7676C76.7072 49.5091 77.9039 41.0554 81.4603 34.3502C89.5914 19.0894 103.307 22.9003 112.457 39.7228Z" fill="black"/>
<path d="M110.199 233.101L120.826 243.184L125.07 231.692L125.511 243.846L133.277 232.812L136.52 247.487C136.52 247.903 115.598 249.185 113.696 248.183C115.411 242.148 113.959 238.151 110.199 233.101Z" fill="#C1FFC8"/>
<path d="M151.709 241.79L162.335 251.873L166.579 240.381L167.021 252.535L174.787 241.501L178.029 256.176C178.029 256.592 157.107 257.874 155.206 256.872C156.92 250.838 155.469 246.84 151.709 241.79Z" fill="#C1FFC8"/>
<path d="M144.127 67.5412C145.639 64.0638 119.854 49.5047 86.5347 35.0225C53.2158 20.5403 24.9802 11.6191 23.4687 15.0965C21.9573 18.5739 47.7423 33.133 81.0612 47.6151C114.38 62.0973 142.616 71.0185 144.127 67.5412Z" fill="#FFCD5F"/>
<path d="M64.0263 16.1564C66.1927 13.5059 70.9743 7.646 78.3122 4.61933C87.3975 0.908304 95.9342 3.43005 103.103 5.55628C110.983 7.87743 122.88 11.3985 128.054 22.3894C130.15 27.023 130.888 32.1564 130.181 37.1928C129.091 44.7991 125.164 51.7116 119.189 56.5431L57.9145 25.9351C59.5295 22.43 61.5832 19.1441 64.0263 16.1564V16.1564Z" fill="#FFCD5F"/>
<path d="M123.868 52.2394C124.299 51.9747 124.691 51.6501 125.03 51.2753C125.791 50.4099 126.266 49.3306 126.39 48.1851C110.72 35.4458 92.3771 26.4061 72.7283 21.7392C68.8762 20.8441 65.1212 20.1726 61.4896 19.6734C61.0585 19.9381 60.6672 20.2627 60.3275 20.6375C59.5666 21.5029 59.0916 22.5822 58.9672 23.7278C66.7178 26.4015 74.7575 29.4238 83.0284 32.843C96.969 38.5954 110.601 45.0697 123.868 52.2394V52.2394Z" fill="#FFB89A"/>
</svg>
