<svg width="246" height="292" viewBox="0 0 246 292" fill="none" xmlns="http://www.w3.org/2000/svg">
<path d="M210 8.99048H7.12579V197H210V8.99048Z" fill="#8FBBE3" fill-opacity="0.78"/>
<path d="M81.4187 7C76.6007 19.9179 71.7827 32.8359 66.9648 45.7538L88 37.3553C69.6487 70.5702 51.3154 103.785 33 137L55.8106 65.1931L39.3931 78.7445C43.6671 61.9706 48.6703 44.6696 54.4028 26.8416C56.5428 20.23 58.7366 13.7387 60.9842 7.36756L81.4187 7Z" fill="#FFE99A"/>
<path d="M108.563 7.25952V195.269" stroke="#6F94B6" stroke-width="14" stroke-miterlimit="10"/>
<path d="M210 7.25977H7.12579V195.269H210V7.25977Z" stroke="#6F94B6" stroke-width="14" stroke-miterlimit="10"/>
<path d="M7.12549 101.264H210" stroke="#6F94B6" stroke-width="14" stroke-miterlimit="10"/>
<path d="M155.044 151.057C174.764 151.647 187.284 132.867 190.044 119.057C190.944 114.434 190.944 109.68 190.044 105.057C193.174 90.1071 192.344 86.5671 191.044 86.0571C189.744 85.5471 187.654 88.4471 182.044 93.0571C178.897 95.6458 175.553 97.9861 172.044 100.057C162.565 97.361 152.523 97.361 143.044 100.057C140.814 97.9471 137.264 94.5071 133.044 90.0571C127.094 83.7771 125.364 81.6071 124.044 82.0571C122.564 82.5571 121.434 86.4171 124.044 103.057C122.494 107.208 121.813 111.632 122.044 116.057C122.914 131.257 135.484 150.477 155.044 151.057Z" fill="white"/>
<path d="M145.684 268.857C145.924 272.657 146.184 276.567 147.844 279.997C149.984 284.427 154.264 287.547 158.844 289.227C163.424 290.907 168.454 291.327 173.374 291.517C180.084 291.777 186.914 291.657 193.374 289.787C196.754 288.787 204.684 285.787 209.374 278.317C212.774 272.897 212.954 267.377 213.024 264.057C213.684 232.267 214.024 216.377 209.024 206.057C202.974 193.557 188.234 174.057 179.934 166.207C177.766 164.24 176.091 161.791 175.044 159.057C172.864 153.147 174.434 147.127 176.044 143.057C169.07 143.803 162.057 144.137 155.044 144.057C148.934 143.987 143.244 143.617 138.044 143.057C134.11 155.665 132.417 168.865 133.044 182.057C134.374 207.057 143.484 210.267 143.604 235.837C143.664 246.867 145.044 257.847 145.684 268.857Z" fill="white"/>
<path d="M202.504 233.407C209.914 227.227 219.754 223.187 229.204 225.097C238.654 227.007 246.814 236.237 245.274 245.757C244.544 250.227 241.154 254.677 236.624 254.857C230.884 255.087 227.224 249.007 222.474 245.757C216.244 241.487 207.414 242.357 201.174 246.607C194.934 250.857 191.054 257.937 189.174 265.247C187.454 271.917 187.684 278.707 186.804 285.447C178.554 269.167 189.404 244.337 202.504 233.407Z" fill="#F2F2F2"/>
<path d="M174.424 148.657C174.294 150.127 174.174 151.587 174.044 153.057C161.231 154.852 148.201 154.327 135.574 151.507L136.864 146.647C149.189 149.371 161.879 150.046 174.424 148.647V148.657Z" fill="#FFD5C7"/>
</svg>
