<svg id="Layer_1" data-name="Layer 1" xmlns="http://www.w3.org/2000/svg" viewBox="0 0 159.09 158.55"><defs><style>.cls-1{fill:#d1d1d1;}.cls-2{fill:#e4e4e4;}</style></defs><title>Cats and Dogs</title><path class="cls-1" d="M71.54,85.35c-7.29-.69-11.85-5.41-10.47-9.54,1.12-3.39,6.11-6,12-5.92.67-7.3,6.3-13.83,15.08-16.67,13.91-4.49,30.78,1.84,36.58,9.9a13.11,13.11,0,0,1,2.52,7.62c5.91-1.45,12.47.52,14.88,4.38a5.83,5.83,0,0,1,.27,5.78A9.85,9.85,0,0,1,137,85.35Z"/><path class="cls-2" d="M26.72,92.82c-7.3-.69-11.85-5.41-10.48-9.54,1.13-3.39,6.11-6,12-5.92.67-7.3,6.29-13.83,15.08-16.67,13.91-4.49,30.77,1.84,36.57,9.9a13.15,13.15,0,0,1,2.53,7.62c5.9-1.45,12.46.52,14.88,4.38a5.85,5.85,0,0,1,.27,5.78,9.91,9.91,0,0,1-5.38,4.45Z"/><path class="cls-2" d="M26.72,92.82c-7.3-.69-11.85-5.41-10.48-9.54,1.13-3.39,6.11-6,12-5.92.67-7.3,6.29-13.83,15.08-16.67,13.91-4.49,30.77,1.84,36.57,9.9a13.15,13.15,0,0,1,2.53,7.62c5.9-1.45,12.46.52,14.88,4.38a5.85,5.85,0,0,1,.27,5.78,9.91,9.91,0,0,1-5.38,4.45Z"/></svg>