<svg id="Layer_1" data-name="Layer 1" xmlns="http://www.w3.org/2000/svg" viewBox="0 0 159.09 158.55"><defs><style>.cls-1{fill:#e4e4e4;}.cls-2{fill:#c5e3ff;}</style></defs><title>Cats and Dogs</title><path class="cls-1" d="M46.52,73c-7.84-.74-12.74-5.81-11.26-10.25,1.21-3.64,6.57-6.47,12.86-6.36.72-7.85,6.77-14.86,16.21-17.92,15-4.83,33.08,2,39.31,10.65a14.12,14.12,0,0,1,2.72,8.19c6.34-1.57,13.39.55,16,4.7a6.24,6.24,0,0,1,.29,6.21A10.48,10.48,0,0,1,116.86,73Z"/><circle class="cls-2" cx="53" cy="89" r="5"/><circle class="cls-2" cx="82.5" cy="89" r="5"/><circle class="cls-2" cx="73" cy="106" r="5"/><circle class="cls-2" cx="100.5" cy="106" r="5"/><circle class="cls-2" cx="110" cy="89" r="5"/></svg>