<svg id="Layer_1" data-name="Layer 1" xmlns="http://www.w3.org/2000/svg" viewBox="0 0 159.09 158.55"><defs><style>.cls-1{fill:#e4e4e4;}.cls-2{fill:#ffcd5f;}</style></defs><title>Cats and Dogs</title><path class="cls-1" d="M47.46,73c-7.75-.73-12.59-5.74-11.12-10.13,1.19-3.59,6.49-6.39,12.71-6.29.7-7.75,6.68-14.68,16-17.7,14.77-4.78,32.69,1.95,38.85,10.52a13.94,13.94,0,0,1,2.68,8.09c6.27-1.55,13.24.55,15.8,4.65a6.16,6.16,0,0,1,.29,6.14A10.4,10.4,0,0,1,117,73Z"/><path class="cls-2" d="M92,80.76H69.65L54,112.1H65.17L62.93,130l22.38-26.86H74.12Z"/></svg>