<svg width="17" height="17" viewBox="0 0 17 17" fill="none" xmlns="http://www.w3.org/2000/svg">
<path d="M10.2268 0.0864637C10.0997 -0.0288212 9.90634 -0.0288212 9.77934 0.0864637C9.63423 0.217316 6.31301 3.2528 4.7707 6.77096C4.60446 6.7126 4.41309 6.66886 4.16567 6.66886C3.58184 6.66886 3.26858 6.88671 3.01688 7.06189C2.7971 7.21494 2.62354 7.33572 2.24874 7.33572C1.8746 7.33572 1.70105 7.2149 1.48157 7.0622C1.23019 6.88702 0.916934 6.66886 0.333445 6.66886C0.149139 6.66886 0 6.818 0 7.00231C0 7.18661 0.149139 7.33575 0.333445 7.33575C0.707589 7.33575 0.881142 7.45657 1.10061 7.60927C1.352 7.78445 1.66525 8.00261 2.24874 8.00261C2.83258 8.00261 3.14614 7.78445 3.39784 7.60927C3.61763 7.45657 3.79118 7.33575 4.16567 7.33575C4.54078 7.33575 4.71468 7.45657 4.93478 7.60959C5.18648 7.78476 5.50004 8.00261 6.08422 8.00261C6.66805 8.00261 6.98161 7.78476 7.23366 7.60959C7.45345 7.45654 7.62734 7.33575 8.00245 7.33575C8.18676 7.33575 8.3359 7.18661 8.3359 7.00231C8.3359 6.818 8.18676 6.66886 8.00245 6.66886C7.41831 6.66886 7.10471 6.88671 6.8527 7.06189C6.63292 7.21494 6.45902 7.33572 6.08425 7.33572C5.73389 7.33572 5.55837 7.22885 5.35772 7.09021C6.61188 4.19368 9.22329 1.54272 10.0031 0.79174C11.0415 1.79236 15.3381 6.16415 15.3381 10.0032C15.3381 12.9448 12.9447 15.3381 10.0031 15.3381C8.67528 15.3381 7.4189 14.8436 6.44639 13.9703C6.80719 13.9035 7.04013 13.7459 7.23369 13.6114C7.45348 13.4583 7.62737 13.3375 8.00249 13.3375C8.18679 13.3375 8.33593 13.1884 8.33593 13.0041C8.33593 12.8198 8.18679 12.6707 8.00249 12.6707C7.41834 12.6707 7.10475 12.8885 6.85273 13.0637C6.63295 13.2167 6.45905 13.3375 6.08428 13.3375C5.70917 13.3375 5.53527 13.2167 5.31549 13.0637C5.06344 12.8885 4.74988 12.6707 4.16573 12.6707C3.5819 12.6707 3.26865 12.8885 3.01695 13.0637C2.79716 13.2167 2.62361 13.3375 2.24881 13.3375C1.87466 13.3375 1.70111 13.2167 1.48164 13.064C1.23025 12.8888 0.916997 12.6707 0.333507 12.6707C0.149201 12.6707 6.25189e-05 12.8198 6.25189e-05 13.0041C6.25189e-05 13.1884 0.149201 13.3375 0.333507 13.3375C0.707652 13.3375 0.881205 13.4584 1.10068 13.6111C1.35207 13.7862 1.66532 14.0044 2.24881 14.0044C2.83264 14.0044 3.1462 13.7862 3.3979 13.6111C3.61769 13.4584 3.79124 13.3375 4.16573 13.3375C4.54084 13.3375 4.71474 13.4584 4.93484 13.6114C5.07066 13.7059 5.22912 13.81 5.43377 13.8885C6.57787 15.2325 8.23634 16.005 10.0031 16.005C13.3124 16.005 16.0049 13.3125 16.0049 10.0032C16.0049 5.36541 10.4625 0.299747 10.2268 0.0864637Z" fill="#727272"/>
<path d="M0.333445 11.3369C0.707589 11.3369 0.881142 11.4578 1.10061 11.6105C1.352 11.7856 1.66525 12.0038 2.24874 12.0038C2.43305 12.0038 2.58219 11.8547 2.58219 11.6704C2.58219 11.486 2.43305 11.3369 2.24874 11.3369C1.8746 11.3369 1.70105 11.2161 1.48157 11.0634C1.23019 10.8882 0.916934 10.6701 0.333445 10.6701C0.149139 10.6701 0 10.8192 0 11.0035C0 11.1878 0.149139 11.3369 0.333445 11.3369Z" fill="#727272"/>
<path d="M4.1656 10.6701C3.98129 10.6701 3.83215 10.8192 3.83215 11.0035C3.83215 11.1878 3.98129 11.337 4.1656 11.337C4.54071 11.337 4.71461 11.4578 4.93439 11.6108C5.18644 11.786 5.5 12.0038 6.08415 12.0038C6.66798 12.0038 6.98154 11.786 7.23359 11.6108C7.45338 11.4578 7.62727 11.337 8.00238 11.337C8.38369 11.337 8.57775 11.461 8.82295 11.618C9.10591 11.7987 9.42666 12.0039 10.003 12.0039C10.1873 12.0039 10.3364 11.8547 10.3364 11.6704C10.3364 11.4861 10.1873 11.337 10.003 11.337C9.62169 11.337 9.42763 11.2129 9.18243 11.0559C8.89947 10.8752 8.57872 10.6701 8.00238 10.6701C7.41824 10.6701 7.10464 10.8879 6.85263 11.0631C6.63285 11.2161 6.45895 11.3369 6.08418 11.3369C5.70907 11.3369 5.53517 11.2161 5.31507 11.0631C5.06334 10.8879 4.74978 10.6701 4.1656 10.6701Z" fill="#727272"/>
<path d="M4.16567 8.66946C3.58184 8.66946 3.26858 8.88731 3.01688 9.06249C2.7971 9.21554 2.62354 9.33632 2.24874 9.33632C1.8746 9.33632 1.70105 9.2155 1.48157 9.0628C1.23019 8.88762 0.916934 8.66946 0.333445 8.66946C0.149139 8.66946 0 8.8186 0 9.00291C0 9.18722 0.149139 9.33635 0.333445 9.33635C0.707589 9.33635 0.881142 9.45717 1.10061 9.60987C1.352 9.78505 1.66525 10.0032 2.24874 10.0032C2.83258 10.0032 3.14614 9.78505 3.39784 9.60987C3.61763 9.45717 3.79118 9.33635 4.16567 9.33635C4.34997 9.33635 4.49911 9.18722 4.49911 9.00291C4.49911 8.81857 4.34997 8.66946 4.16567 8.66946Z" fill="#727272"/>
<path d="M7.23359 9.61016C7.45337 9.45711 7.62727 9.33632 8.00238 9.33632C8.37653 9.33632 8.55008 9.45714 8.76955 9.60984C9.02094 9.78502 9.33419 10.0032 9.91768 10.0032C10.5015 10.0032 10.8151 9.78502 11.0668 9.60984C11.2866 9.45714 11.4601 9.33632 11.8346 9.33632C12.0189 9.33632 12.1681 9.18718 12.1681 9.00288C12.1681 8.81857 12.0189 8.66943 11.8346 8.66943C11.2508 8.66943 10.9375 8.88728 10.6858 9.06246C10.466 9.21551 10.2925 9.33629 9.91768 9.33629C9.54354 9.33629 9.36998 9.21547 9.15051 9.06277C8.89912 8.88759 8.58587 8.66943 8.00238 8.66943C7.41824 8.66943 7.10464 8.88728 6.85263 9.06246C6.63284 9.21551 6.45895 9.33629 6.08418 9.33629C5.89987 9.33629 5.75073 9.48543 5.75073 9.66974C5.75073 9.85404 5.89987 10.0032 6.08418 10.0032C6.66798 10.0032 6.98154 9.78533 7.23359 9.61016Z" fill="#727272"/>
</svg>
