<svg width="17" height="23" viewBox="0 0 17 23" fill="none" xmlns="http://www.w3.org/2000/svg">
<path d="M8.32974 0C3.7367 0 0 3.7367 0 8.32969C0 14.0297 7.4543 22.3978 7.77167 22.7512C8.06978 23.0832 8.59024 23.0826 8.8878 22.7512C9.20518 22.3978 16.6595 14.0297 16.6595 8.32969C16.6594 3.7367 12.9227 0 8.32974 0ZM8.32974 12.5206C6.01886 12.5206 4.13888 10.6406 4.13888 8.32969C4.13888 6.01882 6.01891 4.13884 8.32974 4.13884C10.6406 4.13884 12.5205 6.01886 12.5205 8.32974C12.5205 10.6406 10.6406 12.5206 8.32974 12.5206Z" fill="white"/>
</svg>
