<svg width="283" height="214" viewBox="0 0 283 214" fill="none" xmlns="http://www.w3.org/2000/svg">
<circle cx="138" cy="100" r="100" fill="#FFB89A"/>
<circle cx="138.5" cy="102.5" r="75.5" fill="#FFE99A"/>
<path d="M22.4903 208C7.20804 206.28 -2.51193 191.584 0.569668 178.685C3.28092 167.33 15.5305 159.027 28.7233 161.317C23.8878 144.591 28.4438 127.252 40.2951 117.334C51.9367 107.586 65.9401 108.918 68.7702 109.249C92.0045 112.005 102.13 135.097 102.584 136.182C111.144 125.948 125.846 123.805 136.405 130.797C146.041 137.183 150.233 149.828 146.188 161.317C156.802 161.134 166.382 167.273 170.211 176.577C174.76 187.601 170.428 201.128 159.534 208H22.4903Z" fill="#9CD0FF"/>
<path d="M134.36 172C119.166 170.315 109.503 155.916 112.566 143.277C115.262 132.151 127.44 124.016 140.556 126.26C135.749 109.872 140.278 92.8828 152.061 83.1658C163.635 73.6146 177.557 74.9198 180.37 75.2444C203.47 77.9447 213.536 100.569 213.988 101.633C222.498 91.6052 237.114 89.5057 247.612 96.3566C257.192 102.614 261.36 115.003 257.338 126.26C267.89 126.081 277.415 132.096 281.222 141.212C285.744 152.014 281.437 165.266 270.607 172H134.36Z" fill="#9CD0FF"/>
<path d="M146.688 142.274C148.03 152.73 149.369 163.168 150.705 173.588C151.403 179.019 152.298 184.933 155.546 188.95C160.261 194.775 167.374 193.809 173.261 192.368C181.045 190.471 189.052 188.458 195.324 182.831C198.819 179.558 201.406 175.435 202.83 170.863C204.254 166.292 204.467 161.429 203.448 156.75C201.426 147.803 195.217 141.021 189.392 134.929C183.317 128.567 177.072 122.09 169.897 118.556C153.479 110.521 144.12 122.251 146.688 142.274Z" fill="black"/>
<path d="M129.59 143.081C127.604 153.435 125.615 163.784 123.623 174.127C122.594 179.495 121.332 185.346 117.834 189.158C112.77 194.678 105.729 193.264 99.9401 191.466C92.2815 189.077 84.4171 186.572 78.5121 180.568C75.2321 177.082 72.9133 172.803 71.7826 168.152C70.6518 163.5 70.7479 158.635 72.0613 154.032C74.6291 145.246 81.2498 138.822 87.4501 133.123C93.9098 127.164 100.54 121.08 107.93 118.002C124.777 110.97 133.402 123.281 129.59 143.081Z" fill="black"/>
<path d="M114.739 131.761C111.097 135.966 111.428 138.704 108.637 147.258C102.508 166.046 96.2275 167.12 95.4312 178.876C95.2254 181.972 94.7781 190.427 99.9584 198.336C108.011 210.548 123.65 212.579 129.358 213.313C131.425 213.581 160.807 217.008 171.346 200.224C176.536 191.948 174.925 182.33 173.816 175.718C172.026 164.874 168.099 164.302 163.079 148.045C159.366 135.984 160.565 133.229 156.485 129.068C148.558 121.016 135.192 122.394 133.357 122.609C130.485 122.949 121.046 124.452 114.739 131.761Z" fill="white"/>
<path d="M118.443 163.085C121.896 163.085 121.905 157.717 118.443 157.717C114.98 157.717 114.98 163.085 118.443 163.085Z" fill="black"/>
<path d="M152.146 162.951C155.6 162.951 155.609 157.582 152.146 157.582C148.684 157.582 148.684 162.951 152.146 162.951Z" fill="black"/>
<path d="M131.326 170.421C131.005 170.668 130.741 170.979 130.549 171.336C130.358 171.692 130.245 172.085 130.217 172.488C129.975 174.85 132.525 178.098 135.585 177.856C138.215 177.651 139.647 174.984 140.058 173.383C140.121 173.141 140.729 170.699 139.683 169.983C138.788 169.392 137.893 170.618 135.585 170.699C133.366 170.77 132.436 169.732 131.326 170.421Z" fill="black"/>
<path d="M135.419 176.839L135.419 190.26" stroke="black" stroke-width="2" stroke-miterlimit="10"/>
<path d="M147.944 183.281C145.121 187.711 139.88 190.458 134.67 190.249C129.46 190.04 124.458 186.856 121.998 182.208" stroke="black" stroke-width="2" stroke-linecap="round" stroke-linejoin="bevel"/>
<path d="M94.3755 159.658C92.5861 157.708 90.1525 155.721 87.6295 156.464C85.1064 157.207 84.1849 159.953 83.8002 162.423C82.7572 169.308 84.2072 176.339 87.8889 182.249C90.913 187.063 102.857 198.658 107.501 188.87C111.241 180.997 99.2426 165.026 94.3755 159.658Z" fill="black"/>
<path d="M191.075 208.553C210.544 212.489 218.967 200.007 226.23 187.129C228.808 181.666 230.162 176.28 230.057 171.539C235.703 157.224 239.058 150.898 237.859 150.174C236.66 149.449 234.084 151.963 227.731 155.586C224.171 157.626 220.455 159.382 216.619 160.838C207.664 156.538 197.686 154.827 187.81 155.9C185.958 153.43 183.014 149.413 179.588 144.269C174.747 137.021 173.405 134.579 172.018 134.803C170.462 135.044 168.69 138.686 168.44 155.64C166.198 159.484 165.664 163.747 165.138 168.166C164.048 188.023 171.653 207.259 191.075 208.553Z" fill="#F3F1F1"/>
<path d="M192.042 186.722C191.857 186.832 191.698 186.979 191.575 187.155C191.451 187.331 191.367 187.531 191.326 187.742C191.24 188.497 191.458 189.256 191.931 189.851C192.404 190.447 193.094 190.83 193.849 190.918C195.254 190.972 196.175 189.639 196.488 188.815C196.533 188.699 197.007 187.447 196.488 187.026C195.97 186.606 195.522 187.259 194.27 187.16C193.017 187.062 192.668 186.4 192.042 186.722Z" fill="black"/>
<path d="M193.482 189.272L192.704 195.23" stroke="black" stroke-width="1.5" stroke-miterlimit="10"/>
<path d="M187.209 191.066C187.757 192.244 188.583 193.272 189.615 194.061C190.647 194.851 191.855 195.379 193.135 195.601C194.331 195.733 195.541 195.59 196.674 195.184C197.807 194.778 198.832 194.118 199.671 193.256" stroke="black" stroke-width="1.5" stroke-miterlimit="10" stroke-linecap="round"/>
<path d="M179.548 179.787C182.244 181.634 186.203 180.75 188.31 177.828" stroke="black" stroke-width="2" stroke-miterlimit="10" stroke-linecap="round"/>
<path d="M209.962 184.163C209.17 184.391 208.34 184.458 207.521 184.361C206.702 184.264 205.911 184.004 205.194 183.598C204.476 183.191 203.847 182.646 203.343 181.993C202.839 181.34 202.471 180.594 202.259 179.797" stroke="black" stroke-width="2" stroke-miterlimit="10" stroke-linecap="round"/>
<path d="M172.976 149.977C172.88 149.678 172.853 149.362 172.898 149.052C172.943 148.742 173.058 148.446 173.235 148.187C173.417 148.025 173.64 147.916 173.88 147.872C174.12 147.828 174.367 147.85 174.595 147.937C175.049 148.123 175.46 148.4 175.803 148.751C177.39 150.207 178.751 151.893 179.838 153.752C180.106 154.087 180.285 154.484 180.359 154.906C180.432 155.329 180.398 155.763 180.258 156.168C180.046 156.462 179.771 156.707 179.455 156.884C179.138 157.062 178.786 157.169 178.424 157.197C177.507 157.385 176.577 157.501 175.642 157.546C173.638 157.653 173.852 156.776 173.852 155.354C173.71 153.54 173.416 151.742 172.976 149.977V149.977Z" fill="black"/>
<path d="M230.907 160.552C231.057 160.28 231.143 159.977 231.157 159.667C231.171 159.356 231.113 159.047 230.988 158.763C230.838 158.569 230.638 158.419 230.409 158.331C230.181 158.243 229.932 158.219 229.691 158.262C229.211 158.356 228.756 158.551 228.358 158.834C226.525 159.965 224.872 161.365 223.455 162.986C223.102 163.196 222.823 163.51 222.657 163.886C222.491 164.262 222.446 164.68 222.529 165.083C222.612 165.485 222.817 165.852 223.118 166.132C223.419 166.412 223.799 166.591 224.206 166.645C225.078 167.008 225.975 167.307 226.89 167.54C228.841 168.014 228.778 167.11 229.038 165.75C229.514 163.968 230.139 162.229 230.907 160.552V160.552Z" fill="black"/>
</svg>
