<svg width="14" height="13" viewBox="0 0 14 13" fill="none" xmlns="http://www.w3.org/2000/svg">
<path d="M11.5006 2.28572C10.4435 2.28572 9.58384 3.31111 9.58384 4.57143C9.58384 4.887 9.79816 5.14286 10.063 5.14286C10.3279 5.14286 10.5422 4.887 10.5422 4.57143C10.5422 3.94111 10.9723 3.42858 11.5006 3.42858C12.0289 3.42858 12.459 3.94111 12.459 4.57143C12.459 5.20175 12.0289 5.71429 11.5006 5.71429H0.517153C0.252281 5.71429 0.0379639 5.97015 0.0379639 6.28572C0.0379639 6.60129 0.252281 6.85714 0.517153 6.85714H11.5006C12.5577 6.85714 13.4174 5.83175 13.4174 4.57143C13.4174 3.31111 12.5577 2.28572 11.5006 2.28572Z" fill="#727272"/>
<path d="M6.70865 0C5.65153 0 4.7919 1.02539 4.7919 2.28571C4.7919 2.60128 5.00621 2.85714 5.27108 2.85714C5.53596 2.85714 5.75027 2.60128 5.75027 2.28571C5.75027 1.65539 6.18032 1.14286 6.70865 1.14286C7.23699 1.14286 7.66703 1.65539 7.66703 2.28571C7.66703 2.91603 7.23699 3.42857 6.70865 3.42857H0.47919C0.214318 3.42857 0 3.68442 0 4C0 4.31557 0.214318 4.57142 0.47919 4.57142H6.70865C7.76578 4.57142 8.62541 3.54603 8.62541 2.28571C8.62541 1.02539 7.76578 0 6.70865 0Z" fill="#727272"/>
<path d="M6.70865 7.99999H0.47919C0.214318 7.99999 0 8.25585 0 8.57142C0 8.88699 0.214318 9.14285 0.47919 9.14285H6.70865C7.23699 9.14285 7.66703 9.65538 7.66703 10.2857C7.66703 10.916 7.23699 11.4286 6.70865 11.4286C6.18032 11.4286 5.75027 10.916 5.75027 10.2857C5.75027 9.97013 5.53596 9.71428 5.27108 9.71428C5.00621 9.71428 4.7919 9.97013 4.7919 10.2857C4.7919 11.546 5.65153 12.5714 6.70865 12.5714C7.76578 12.5714 8.62541 11.546 8.62541 10.2857C8.62541 9.02538 7.76578 7.99999 6.70865 7.99999Z" fill="#727272"/>
</svg>
