<svg width="152" height="103" viewBox="0 0 152 103" fill="none" xmlns="http://www.w3.org/2000/svg">
<circle cx="97.5" cy="43.5" r="43.5" fill="#FFE99A"/>
<path d="M12.8568 80C4.10864 78.7927 -1.35643 70.5188 0.293102 63.267C1.64235 57.3231 7.6239 52.7032 14.6504 52.8762C15.4512 40.0589 22.2014 28.6057 32.7392 23.6236C49.4267 15.732 69.6615 26.8431 76.6199 41.0005C78.6243 45.17 79.6607 49.7426 79.6507 54.3733C86.7333 51.8138 94.6046 55.2747 97.4993 62.0597C98.8353 65.2855 98.9503 68.8913 97.8224 72.1964C96.6946 75.5016 94.4021 78.2775 91.3776 80H12.8568Z" fill="#C3CDD7"/>
<path d="M41.5612 103C30.2925 101.445 23.2527 90.7869 25.3776 81.4456C27.1156 73.7891 34.8206 67.838 43.8717 68.0609C44.9032 51.5504 53.5985 36.7972 67.1725 30.3796C88.6683 20.2141 114.733 34.5267 123.697 52.7634C126.279 58.1343 127.614 64.0243 127.601 69.9893C136.724 66.6924 146.864 71.1505 150.592 79.8904C152.313 84.0457 152.461 88.6905 151.009 92.948C149.556 97.2055 146.603 100.781 142.707 103H41.5612Z" fill="#EAEFF4"/>
</svg>
