<svg width="127" height="139" viewBox="0 0 127 139" fill="none" xmlns="http://www.w3.org/2000/svg">
<path d="M16.5612 76C5.29249 74.4449 -1.74726 63.7869 0.377555 54.4456C2.11557 46.7891 9.82062 40.838 18.8717 41.0609C19.9032 24.5504 28.5985 9.7972 42.1725 3.37961C63.6683 -6.7859 89.7334 7.52668 98.6968 25.7634C101.279 31.1343 102.614 37.0243 102.601 42.9893C111.724 39.6924 121.864 44.1505 125.592 52.8904C127.313 57.0457 127.461 61.6905 126.009 65.948C124.556 70.2055 121.603 73.7811 117.707 76H16.5612Z" fill="white" fill-opacity="0.41"/>
<line x1="40.9252" y1="94.4925" x2="45.4925" y2="100.075" stroke="#C5E3FF" stroke-width="7" stroke-linecap="round"/>
<line x1="56.9252" y1="111.493" x2="61.4925" y2="117.075" stroke="#C5E3FF" stroke-width="7" stroke-linecap="round"/>
<line x1="52.9252" y1="128.493" x2="57.4925" y2="134.075" stroke="#C5E3FF" stroke-width="7" stroke-linecap="round"/>
<line x1="63.9252" y1="94.4925" x2="68.4925" y2="100.075" stroke="#C5E3FF" stroke-width="7" stroke-linecap="round"/>
<line x1="32.9252" y1="111.493" x2="37.4925" y2="117.075" stroke="#C5E3FF" stroke-width="7" stroke-linecap="round"/>
<line x1="86.9252" y1="94.4925" x2="91.4925" y2="100.075" stroke="#C5E3FF" stroke-width="7" stroke-linecap="round"/>
<line x1="80.9252" y1="111.493" x2="85.4925" y2="117.075" stroke="#C5E3FF" stroke-width="7" stroke-linecap="round"/>
<line x1="76.9252" y1="128.493" x2="81.4925" y2="134.075" stroke="#C5E3FF" stroke-width="7" stroke-linecap="round"/>
</svg>
