<svg width="37" height="38" viewBox="0 0 37 38" fill="none" xmlns="http://www.w3.org/2000/svg">
<path d="M30.9856 25.7915C29.7414 23.1776 28.1265 23.346 25.029 19.6924C22.8847 17.1598 22.8615 16.1461 21.058 15.3358C20.9024 15.2661 18.3709 14.1741 15.7632 15.0454C13.7479 15.7192 13.7413 16.8809 11.1303 19.4019C7.84757 22.5706 6.27238 22.2656 4.8428 24.6297C4.65748 24.9347 3.2279 27.3714 3.82025 30.0434C4.86927 34.795 11.7922 37.7951 17.4178 37.9897C23.1858 38.1872 30.3238 35.5501 31.6475 31.0193C32.3391 28.6232 31.2272 26.2939 30.9856 25.7915ZM23.5829 27.9C23.5846 27.9262 23.5846 27.9523 23.5829 27.9785C23.555 28.9715 23.2041 29.9369 22.5718 30.7607C21.9395 31.5846 21.052 32.2327 20.0139 32.6286C18.9759 33.0244 17.8305 33.1516 16.7128 32.9951C15.5951 32.8387 14.5516 32.405 13.7054 31.7454C12.8592 31.0857 12.2455 30.2274 11.9366 29.2718C11.6277 28.3162 11.6365 27.3029 11.962 26.3515C12.2874 25.4001 12.916 24.5502 13.7736 23.9019C14.6312 23.2537 15.682 22.834 16.8023 22.6925V21.1445L19.3438 23.378L16.8023 25.6085V24.197C16.0263 24.3354 15.31 24.6618 14.7345 25.1393C14.159 25.6167 13.7474 26.2261 13.5464 26.8983C13.3453 27.5705 13.3628 28.2788 13.5969 28.9427C13.831 29.6067 14.2723 30.1998 14.8708 30.6549C15.4693 31.11 16.2011 31.4088 16.9832 31.5176C17.7654 31.6263 18.5666 31.5406 19.2961 31.2702C20.0256 30.9997 20.6541 30.5554 21.1106 29.9874C21.5671 29.4195 21.8331 28.7507 21.8787 28.0569V28.0569C21.8681 28.0061 21.8625 27.9546 21.8621 27.9029C21.8578 27.8038 21.8757 27.7048 21.9149 27.6118C21.9542 27.5187 22.0139 27.4333 22.0907 27.3605C22.1675 27.2877 22.2599 27.2288 22.3627 27.1874C22.4654 27.1459 22.5764 27.1226 22.6894 27.1188C22.8024 27.115 22.9151 27.1307 23.0212 27.1651C23.1272 27.1996 23.2245 27.252 23.3075 27.3194C23.3905 27.3868 23.4575 27.4679 23.5048 27.5581C23.552 27.6482 23.5786 27.7457 23.5829 27.8449C23.5845 27.8574 23.5845 27.8701 23.5829 27.8826V27.9Z" fill="white"/>
<path d="M3.67743 19.613C5.70841 19.613 7.35485 16.5946 7.35485 12.8711C7.35485 9.14762 5.70841 6.12915 3.67743 6.12915C1.64644 6.12915 0 9.14762 0 12.8711C0 16.5946 1.64644 19.613 3.67743 19.613Z" fill="white"/>
<path d="M13.4839 12.2581C15.5149 12.2581 17.1613 9.51402 17.1613 6.12905C17.1613 2.74407 15.5149 0 13.4839 0C11.4529 0 9.80647 2.74407 9.80647 6.12905C9.80647 9.51402 11.4529 12.2581 13.4839 12.2581Z" fill="white"/>
<path d="M24.5162 12.2581C26.5472 12.2581 28.1936 9.51402 28.1936 6.12905C28.1936 2.74407 26.5472 0 24.5162 0C22.4852 0 20.8388 2.74407 20.8388 6.12905C20.8388 9.51402 22.4852 12.2581 24.5162 12.2581Z" fill="white"/>
<path d="M33.0968 19.6131C35.1278 19.6131 36.7743 16.5946 36.7743 12.8711C36.7743 9.14762 35.1278 6.12915 33.0968 6.12915C31.0659 6.12915 29.4194 9.14762 29.4194 12.8711C29.4194 16.5946 31.0659 19.6131 33.0968 19.6131Z" fill="white"/>
<path d="M23.3315 26.7104V26.7516C23.3331 26.7379 23.3331 26.7241 23.3315 26.7104V26.7104Z" fill="white"/>
</svg>
