<svg width="187" height="110" viewBox="0 0 187 110" fill="none" xmlns="http://www.w3.org/2000/svg">
<path d="M84.5962 29.3664C86.0962 41.0531 87.5929 52.7197 89.0862 64.3664C89.8662 70.4364 90.8662 77.0464 94.4962 81.5364C99.7662 88.0464 107.716 86.9664 114.296 85.3564C122.996 83.2364 131.946 80.9864 138.956 74.6964C142.863 71.0388 145.753 66.4298 147.345 61.3203C148.937 56.2107 149.175 50.7756 148.036 45.5464C145.776 35.5464 138.836 27.9664 132.326 21.1564C125.536 14.0464 118.556 6.80639 110.536 2.85639C92.1862 -6.12361 81.7262 6.9864 84.5962 29.3664Z" fill="black"/>
<path d="M65.4862 30.2666C63.2662 41.8399 61.0429 53.4066 58.8162 64.9666C57.6662 70.9666 56.2562 77.5066 52.3462 81.7666C46.6862 87.9366 38.8162 86.3566 32.3462 84.3466C23.7862 81.6766 14.9962 78.8766 8.39622 72.1666C4.73019 68.2695 2.1385 63.4876 0.874687 58.2886C-0.389126 53.0897 -0.281785 47.6516 1.18621 42.5066C4.05621 32.6866 11.4562 25.5066 18.3862 19.1366C25.6062 12.4766 33.0162 5.67658 41.2762 2.23658C60.1062 -5.62342 69.7462 8.13658 65.4862 30.2666Z" fill="black"/>
<path d="M48.8863 17.6165C44.8163 22.3165 45.1863 25.3764 42.0663 34.9364C35.2163 55.9364 28.1963 57.1365 27.3063 70.2765C27.0763 73.7365 26.5763 83.1865 32.3663 92.0265C41.3663 105.676 58.8463 107.946 65.2263 108.766C67.5363 109.066 100.376 112.896 112.156 94.1365C117.956 84.8865 116.156 74.1364 114.916 66.7464C112.916 54.6264 108.526 53.9864 102.916 35.8164C98.7664 22.3364 100.106 19.2565 95.5463 14.6065C86.6863 5.60645 71.7463 7.14645 69.6963 7.38645C66.4863 7.76645 55.9363 9.44646 48.8863 17.6165Z" fill="white"/>
<path d="M53.0263 52.6265C56.8863 52.6265 56.8963 46.6265 53.0263 46.6265C49.1563 46.6265 49.1563 52.6265 53.0263 52.6265Z" fill="black"/>
<path d="M90.6962 52.4766C94.5562 52.4766 94.5662 46.4766 90.6962 46.4766C86.8262 46.4766 86.8262 52.4766 90.6962 52.4766Z" fill="black"/>
<path d="M67.4262 60.8266C67.0677 61.1018 66.7717 61.45 66.5579 61.8483C66.3441 62.2465 66.2174 62.6856 66.1862 63.1365C65.9162 65.7765 68.7662 69.4065 72.1862 69.1365C75.1262 68.9065 76.7262 65.9265 77.1862 64.1365C77.2562 63.8665 77.9362 61.1366 76.7662 60.3366C75.7662 59.6766 74.7662 61.0465 72.1862 61.1365C69.7062 61.2165 68.6662 60.0566 67.4262 60.8266Z" fill="black"/>
<path d="M71.8162 67.8765V77.1365" stroke="black" stroke-width="2" stroke-miterlimit="10"/>
<path d="M59.1863 84.9565C61.9063 80.0865 66.9563 77.0665 71.9763 77.2965C76.9963 77.5265 81.8163 81.0264 84.1863 86.1364" stroke="black" stroke-width="2" stroke-linecap="round" stroke-linejoin="bevel"/>
<path d="M26.1263 48.7965C24.1263 46.6165 21.4062 44.3965 18.5862 45.2265C15.7662 46.0565 14.7362 49.1265 14.3062 51.8865C13.1405 59.5817 14.7612 67.4403 18.8763 74.0465C22.2563 79.4265 35.6062 92.3865 40.7962 81.4465C44.9762 72.6465 31.5663 54.7965 26.1263 48.7965Z" fill="black"/>
<path d="M134.208 103.446C155.968 107.846 165.382 93.8944 173.5 79.5C176.382 73.3944 177.894 67.3749 177.778 62.0756C184.088 46.0756 187.838 39.0056 186.498 38.1956C185.158 37.3856 182.278 40.1956 175.178 44.2456C171.198 46.5247 167.045 48.4874 162.758 50.1156C152.75 45.3087 141.596 43.3967 130.558 44.5956C128.488 41.8356 125.198 37.3456 121.368 31.5956C115.958 23.4956 114.458 20.7656 112.908 21.0156C111.168 21.2856 109.188 25.3556 108.908 44.3056C106.402 48.6017 105.806 53.3669 105.218 58.3056C104 80.5 112.5 102 134.208 103.446Z" fill="#F3F1F1"/>
<path d="M135.288 79.0455C135.082 79.1682 134.904 79.3333 134.766 79.5298C134.628 79.7263 134.533 79.9497 134.488 80.1855C134.392 81.03 134.635 81.878 135.164 82.5434C135.693 83.2089 136.464 83.6376 137.308 83.7355C138.878 83.7955 139.908 82.3055 140.258 81.3855C140.308 81.2555 140.838 79.8555 140.258 79.3855C139.678 78.9155 139.178 79.6455 137.778 79.5355C136.378 79.4255 135.988 78.6855 135.288 79.0455Z" fill="black"/>
<path d="M136.898 81.8955L136.028 88.5555" stroke="black" stroke-width="2" stroke-miterlimit="10"/>
<path d="M128.558 90.6855C129.55 89.6247 130.783 88.8195 132.154 88.3389C133.524 87.8583 134.991 87.7165 136.428 87.9255C137.744 88.2004 138.981 88.772 140.043 89.5968C141.105 90.4217 141.966 91.4781 142.558 92.6855" stroke="black" stroke-width="1.5" stroke-miterlimit="10" stroke-linecap="round"/>
<path d="M121.323 71.2945C124.337 73.3592 128.762 72.3703 131.118 69.1054" stroke="black" stroke-width="2" stroke-miterlimit="10" stroke-linecap="round"/>
<path d="M155.318 76.1857C154.432 76.44 153.504 76.5152 152.589 76.4067C151.674 76.2982 150.79 76.0082 149.988 75.5538C149.186 75.0994 148.483 74.4896 147.92 73.7602C147.357 73.0308 146.945 72.1963 146.708 71.3057" stroke="black" stroke-width="2" stroke-miterlimit="10" stroke-linecap="round"/>
<path d="M113.978 37.9755C113.871 37.6421 113.841 37.2886 113.891 36.942C113.942 36.5954 114.07 36.2648 114.268 35.9755C114.471 35.7943 114.721 35.6724 114.989 35.623C115.257 35.5737 115.533 35.5988 115.788 35.6955C116.296 35.9031 116.755 36.2129 117.138 36.6056C118.912 38.2328 120.433 40.1171 121.648 42.1955C121.948 42.5694 122.148 43.013 122.23 43.4851C122.312 43.9572 122.274 44.4424 122.118 44.8955C121.88 45.2243 121.573 45.4975 121.219 45.6961C120.865 45.8946 120.473 46.0139 120.068 46.0455C119.043 46.2553 118.003 46.3857 116.958 46.4355C114.718 46.5555 114.958 45.5755 114.958 43.9855C114.798 41.9585 114.471 39.9483 113.978 37.9755V37.9755Z" fill="black"/>
<path d="M178.728 49.7956C178.896 49.4915 178.991 49.153 179.006 48.8061C179.022 48.4593 178.958 48.1135 178.818 47.7956C178.65 47.5787 178.427 47.4119 178.171 47.3131C177.915 47.2144 177.638 47.1876 177.368 47.2356C176.832 47.341 176.324 47.5592 175.878 47.8756C173.83 49.1399 171.983 50.704 170.398 52.5156C170.003 52.7504 169.692 53.1023 169.506 53.5223C169.321 53.9423 169.271 54.4096 169.363 54.8593C169.456 55.3091 169.686 55.7189 170.022 56.0318C170.358 56.3448 170.783 56.5453 171.238 56.6056C172.212 57.0109 173.215 57.3451 174.238 57.6056C176.418 58.1356 176.348 57.1256 176.638 55.6056C177.17 53.6137 177.869 51.6701 178.728 49.7956V49.7956Z" fill="black"/>
</svg>
