<svg width="665" height="900" viewBox="0 0 665 900" fill="none" xmlns="http://www.w3.org/2000/svg">
<mask id="mask0" mask-type="alpha" maskUnits="userSpaceOnUse" x="0" y="0" width="665" height="900">
<rect width="665" height="900" fill="#CDDCEA"/>
</mask>
<g mask="url(#mask0)">
<rect width="665" height="900" fill="#CDDCEA"/>
<path d="M-16.7076 573.99C-27.7918 572.458 -34.7194 561.959 -32.6284 552.756C-30.9181 545.214 -23.3358 539.352 -14.4288 539.571C-18.2707 522.071 -7.00381 505.357 8.5009 502.451C21.7522 499.964 35.9881 507.941 41.4896 521.958C49.2293 517.419 58.6996 518.67 64.1504 524.512C70.5096 531.314 68.1496 540.889 67.9923 541.481C76.9703 538.233 86.9481 542.625 90.6124 551.235C92.3075 555.327 92.4546 559.903 91.0258 564.097C89.597 568.291 86.6914 571.814 82.8575 574L-16.7076 573.99Z" fill="white" fill-opacity="0.45"/>
<path d="M57.2026 740.987C43.4582 739.094 34.8679 726.115 37.4607 714.741C39.5815 705.417 48.9836 698.171 60.0283 698.442C55.2643 676.81 69.2353 656.149 88.4611 652.558C104.893 649.483 122.545 659.343 129.367 676.671C138.964 671.059 150.708 672.606 157.466 679.827C165.352 688.235 162.426 700.071 162.23 700.803C173.363 696.788 185.736 702.217 190.279 712.859C192.381 717.918 192.564 723.574 190.792 728.759C189.02 733.944 185.417 738.298 180.663 741L57.2026 740.987Z" fill="white" fill-opacity="0.45"/>
<path d="M252.703 612.993C259.708 612.015 264.087 605.307 262.765 599.428C261.684 594.609 256.892 590.863 251.263 591.004C253.691 579.823 246.57 569.145 236.771 567.288C228.397 565.699 219.399 570.795 215.923 579.751C211.031 576.851 205.046 577.65 201.601 581.382C197.582 585.728 199.073 591.846 199.173 592.224C193.499 590.149 187.193 592.955 184.877 598.455C183.806 601.07 183.713 603.993 184.616 606.673C185.519 609.353 187.355 611.603 189.778 613L252.703 612.993Z" fill="white" fill-opacity="0.45"/>
<path d="M501.562 569C492.334 567.731 486.569 559.037 488.309 551.416C489.732 545.17 496.042 540.315 503.454 540.497C504.299 527.028 511.419 514.992 522.535 509.757C540.138 501.464 561.482 513.14 568.823 528.018C570.937 532.399 572.03 537.204 572.02 542.07C579.491 539.381 587.794 543.018 590.847 550.147C592.257 553.537 592.378 557.326 591.188 560.8C589.998 564.273 587.58 567.19 584.39 569H501.562Z" fill="white" fill-opacity="0.45"/>
<path d="M392.694 657C387.459 656.284 384.188 651.376 385.175 647.074C385.983 643.548 389.562 640.807 393.767 640.91C394.246 633.306 398.286 626.512 404.592 623.556C414.578 618.875 426.687 625.466 430.851 633.865C432.051 636.338 432.671 639.051 432.665 641.798C436.903 640.279 441.614 642.332 443.346 646.357C444.146 648.271 444.214 650.41 443.539 652.371C442.865 654.331 441.493 655.978 439.683 657H392.694Z" fill="white" fill-opacity="0.45"/>
<path d="M567.26 687C555.532 685.68 548.072 674.398 550.437 664.496C552.518 655.778 561.919 649.404 572.043 651.163C568.333 638.322 571.829 625.011 580.924 617.398C589.858 609.915 600.605 610.937 602.777 611.192C620.608 613.307 628.379 631.034 628.727 631.867C635.297 624.01 646.58 622.365 654.683 627.733C662.078 632.635 665.295 642.343 662.19 651.163C670.336 651.022 677.689 655.735 680.627 662.878C684.119 671.34 680.794 681.724 672.433 687H567.26Z" fill="white" fill-opacity="0.45"/>
</g>
</svg>
